<?xml version="1.0" standalone="no"?>
<!DOCTYPE svg PUBLIC "-//W3C//DTD SVG 20010904//EN"
 "http://www.w3.org/TR/2001/REC-SVG-20010904/DTD/svg10.dtd">
<svg version="1.0" xmlns="http://www.w3.org/2000/svg"
 width="1024.000000pt" height="1024.000000pt" viewBox="0 0 1024.000000 1024.000000"
 preserveAspectRatio="xMidYMid meet">

<g transform="translate(0.000000,1024.000000) scale(0.100000,-0.100000)"
fill="#00a3e4" stroke="none">
<path d="M3891 7199 c-65 -26 -134 -92 -164 -157 l-22 -47 1 -1611 1 -1610 22
-50 c27 -62 91 -128 156 -162 41 -22 63 -26 125 -26 101 0 164 28 230 102 88
99 84 64 88 755 l3 607 874 0 874 0 3 -617 3 -618 24 -48 c31 -63 95 -127 156
-157 40 -20 66 -25 125 -25 129 0 229 64 288 185 l27 55 0 1605 0 1605 -21 46
c-30 64 -88 125 -148 157 -44 23 -63 27 -141 27 -78 0 -97 -4 -147 -28 -64
-32 -111 -80 -142 -146 -21 -45 -21 -59 -24 -718 l-3 -673 -874 0 -874 0 -3
663 -3 662 -26 56 c-55 117 -150 180 -278 186 -60 2 -88 -1 -130 -18z"/>
<path d="M3219 6580 c-87 -15 -163 -70 -205 -150 -18 -33 -19 -80 -19 -1065
l0 -1030 23 -42 c50 -94 143 -155 237 -156 117 -2 214 54 261 150 l29 58 3
999 c3 1123 7 1059 -71 1144 -45 47 -92 76 -147 87 -19 3 -42 8 -50 9 -8 2
-36 0 -61 -4z"/>
<path d="M7054 6570 c-66 -21 -127 -72 -159 -134 l-30 -60 0 -1020 0 -1021 22
-41 c29 -55 111 -127 161 -142 140 -42 285 21 341 149 20 44 20 66 22 1060 2
1127 7 1047 -67 1129 -53 59 -105 83 -189 86 -38 2 -84 -1 -101 -6z"/>
<path d="M2509 5867 c-25 -7 -61 -22 -79 -33 -44 -25 -97 -94 -109 -142 -6
-20 -11 -181 -12 -357 -2 -310 -1 -322 20 -370 79 -179 309 -224 434 -85 73
81 77 106 77 457 0 181 -4 321 -11 346 -33 132 -187 221 -320 184z"/>
<path d="M7760 5864 c-73 -20 -125 -57 -158 -113 l-27 -46 -3 -345 c-2 -223 0
-358 7 -381 17 -58 75 -124 133 -153 136 -68 314 1 362 139 23 69 24 670 1
735 -22 63 -69 116 -128 144 -69 33 -120 38 -187 20z"/>
</g>
</svg>
